<svg xmlns="http://www.w3.org/2000/svg" xmlns:xlink="http://www.w3.org/1999/xlink" fill="none" version="1.1" width="21.091064453125" height="21.0814208984375" viewBox="0 0 21.091064453125 21.0814208984375"><g><path d="M13.0128,20.7984Q13.2266,20.7469,13.4382,20.6866Q13.6497,20.6263,13.8585,20.5572Q14.0673,20.4881,14.273,20.4103Q14.4788,20.3326,14.6811,20.2463Q14.8834,20.1601,15.082,20.0655Q15.2806,19.9708,15.475,19.868Q15.6694,19.7652,15.8594,19.6544Q16.0494,19.5436,16.2346,19.4249Q16.4198,19.3062,16.5999,19.18Q16.78,19.0537,16.9546,18.92Q17.1293,18.7864,17.2982,18.6455Q17.4672,18.5047,17.6301,18.3569Q17.793,18.2091,17.9496,18.0547Q18.1062,17.9003,18.2563,17.7395Q18.4063,17.5787,18.5495,17.4117Q18.6927,17.2448,18.8289,17.072Q18.965,16.8992,19.0938,16.721Q19.2226,16.5427,19.3438,16.3592Q19.4651,16.1757,19.5786,15.9873Q19.6921,15.7989,19.7976,15.6059Q19.9032,15.4129,20.0006,15.2157Q20.098,15.0185,20.1871,14.8174Q20.2762,14.6163,20.3568,14.4117Q20.4375,14.2071,20.5095,13.9992Q20.5815,13.7914,20.6448,13.5808Q20.7081,13.3702,20.7626,13.1571Q20.8171,12.944,20.8626,12.7288Q20.9081,12.5136,20.9447,12.2967Q20.9812,12.0798,21.0086,11.8616Q21.0361,11.6434,21.0544,11.4242Q21.0727,11.205,21.0819,10.9852Q21.0911,10.7655,21.0911,10.5455Q21.0911,10.2867,21.0784,10.0281Q21.0657,9.76953,21.0403,9.5119Q21.0149,9.25426,20.9769,8.99819Q20.9389,8.74211,20.8884,8.4882Q20.8379,8.2343,20.775,7.98318Q20.7121,7.73206,20.637,7.48433Q20.5618,7.2366,20.4746,6.99285Q20.3874,6.74911,20.2883,6.50993Q20.1893,6.27076,20.0786,6.03674Q19.9679,5.80272,19.8459,5.57441Q19.7238,5.3461,19.5907,5.12405Q19.4577,4.902,19.3138,4.68675Q19.17,4.4715,19.0158,4.26357Q18.8616,4.05563,18.6973,3.85552Q18.5331,3.6554,18.3593,3.46359Q18.1854,3.27177,18.0024,3.08872Q17.8193,2.90566,17.6275,2.73181Q17.4357,2.55796,17.2356,2.39373Q17.0354,2.2295,16.8275,2.07528Q16.6196,1.92107,16.4043,1.77724Q16.1891,1.63342,15.967,1.50033Q15.745,1.36724,15.5167,1.2452Q15.2884,1.12317,15.0543,1.01248Q14.8203,0.9018,14.5811,0.802731Q14.342,0.703663,14.0982,0.616449Q13.8545,0.529236,13.6067,0.454087Q13.359,0.378939,13.1079,0.316037Q12.8568,0.253134,12.6029,0.20263Q12.349,0.152125,12.0929,0.11414Q11.8368,0.0761542,11.5792,0.0507797Q11.3215,0.0254051,11.063,0.0127026Q10.8044,0,10.5455,0Q10.2867,0,10.0281,0.0127026Q9.76953,0.0254051,9.51189,0.0507797Q9.25426,0.0761542,8.99819,0.11414Q8.74211,0.152125,8.4882,0.20263Q8.2343,0.253134,7.98318,0.316037Q7.73206,0.378939,7.48433,0.454087Q7.2366,0.529236,6.99285,0.616449Q6.74911,0.703663,6.50993,0.802731Q6.27076,0.9018,6.03674,1.01248Q5.80272,1.12317,5.57441,1.2452Q5.34609,1.36724,5.12405,1.50033Q4.902,1.63342,4.68675,1.77724Q4.4715,1.92107,4.26357,2.07528Q4.05563,2.2295,3.85552,2.39373Q3.6554,2.55796,3.46359,2.73181Q3.27177,2.90566,3.08872,3.08872Q2.90566,3.27177,2.73181,3.46359Q2.55796,3.6554,2.39373,3.85552Q2.2295,4.05563,2.07528,4.26357Q1.92107,4.4715,1.77724,4.68675Q1.63342,4.902,1.50033,5.12405Q1.36724,5.3461,1.2452,5.57441Q1.12317,5.80272,1.01248,6.03674Q0.9018,6.27076,0.802731,6.50993Q0.703663,6.74911,0.616449,6.99285Q0.529236,7.2366,0.454087,7.48433Q0.378939,7.73206,0.316036,7.98318Q0.253134,8.2343,0.20263,8.4882Q0.152125,8.74211,0.114139,8.99819Q0.0761542,9.25426,0.0507796,9.5119Q0.0254051,9.76953,0.0127026,10.0281Q0,10.2867,0,10.5455Q0,10.7836,0.0107452,11.0215Q0.0214905,11.2593,0.0429591,11.4964Q0.0644277,11.7336,0.0965759,11.9695Q0.128724,12.2054,0.171486,12.4396Q0.214249,12.6738,0.267538,12.9059Q0.320827,13.1379,0.384535,13.3673Q0.448242,13.5967,0.522238,13.823Q0.596235,14.0493,0.680368,14.272Q0.764502,14.4948,0.858602,14.7135Q0.952702,14.9322,1.05658,15.1464Q1.16045,15.3606,1.27389,15.57Q1.38733,15.7793,1.5101,15.9833Q1.63286,16.1873,1.76472,16.3855Q1.89657,16.5838,2.03723,16.7759Q2.17789,16.968,2.32708,17.1535Q2.47627,17.3391,2.63368,17.5177Q2.79109,17.6963,2.95641,17.8677Q3.12172,18.039,3.2946,18.2027Q3.46747,18.3664,3.64756,18.5222Q3.82765,18.6779,4.01459,18.8253Q4.20152,18.9728,4.39492,19.1117Q4.58832,19.2505,4.78779,19.3805Q4.98726,19.5105,5.19239,19.6314Q5.39752,19.7522,5.6079,19.8637Q5.81828,19.9752,6.03347,20.077Q6.24866,20.1789,6.46824,20.271Q6.68781,20.363,6.91131,20.4451Q7.13482,20.5271,7.3618,20.599Q7.58877,20.6709,7.81877,20.7324Q8.04876,20.794,8.28129,20.8451Q8.51383,20.8962,8.74844,20.9368Q8.98304,20.9774,9.21924,21.0073Q8.66918,20.9348,8.12945,20.8003L8.12945,18.3165L5.98243,18.3165Q4.13013,16.2116,3.83545,15.7486Q3.54077,15.2855,2.69879,14.9908Q3.91964,14.5698,4.25642,14.9908C4.59319,15.4118,5.47723,17.222,5.98243,17.222C6.02567,17.222,6.07232,17.2223,6.12166,17.2226C6.64876,17.2261,7.48465,17.2316,7.79263,16.8852C8.12945,16.5063,7.79263,16.1695,8.63461,15.7486C8.50925,15.7269,8.56989,15.5647,8.63335,15.395C8.69931,15.2186,8.76831,15.0341,8.63461,14.9908C6.90343,14.9908,3.83545,14.1949,3.83545,10.6547Q3.83545,8.88657,5.0142,7.45525L5.0142,4.42419Q6.95066,5.09776,7.79263,5.89763Q10.1922,5.01357,13.0128,5.89763L15.707,4.42419L16.1281,7.45525Q17.0542,8.84447,17.0542,10.6547C17.0542,12.4649,14.9072,14.9908,12.5497,14.9908L12.5497,15.7486Q13.0128,16.0433,13.0128,17.8535L13.0128,20.7984ZM12.7994,20.8474Q11.8855,21.0406,10.997,21.0814Q11.9083,21.0424,12.7994,20.8474Z" fill-rule="evenodd" fill="#46406E" fill-opacity="1"/></g></svg>